<svg xmlns="http://www.w3.org/2000/svg" viewBox="0 0 433.71 51.62"><defs><style>.cls-1{fill:#0274b6;}</style></defs><g id="Ebene_2" data-name="Ebene 2"><g id="Ebene_1-2" data-name="Ebene 1"><polygon class="cls-1" points="229.21 51.03 248.67 51.03 249.71 45.44 237.15 45.44 238.84 36.33 250.88 36.33 251.86 30.99 239.88 30.99 241.44 22.72 254 22.72 255.11 17.19 235.65 17.19 229.21 51.03"/><polygon class="cls-1" points="218.6 30.73 202.98 30.73 205.51 17.19 198.68 17.19 192.24 51.03 199.07 51.03 201.81 36.65 217.42 36.65 214.76 51.03 221.59 51.03 228.03 17.19 221.2 17.19 218.6 30.73"/><path class="cls-1" d="M273.4,17c-3.91,0-8.27.06-10.68.19L256.35,51h6.83l2.67-14.12h.59L273.14,51h8l-5.79-11.25c-.72-1.44-1.23-2.48-1.89-3.59,4.82-.58,10.87-4,10.87-11.25C284.33,20.38,281.14,17,273.4,17Zm-3.78,15.42a25.85,25.85,0,0,1-2.86-.13l1.89-9.76a21.08,21.08,0,0,1,3.12-.13c3.65,0,5.21,1.5,5.21,3.71C277,29.69,274,32.42,269.62,32.42Z"/><path class="cls-1" d="M56.46,36.85c-1.17,5.92-4.16,8.91-9.89,8.91-5.08,0-7.16-2.4-6.18-7.61l4-21H37.52L33.36,38.8c-1.5,7.81,2.21,12.82,12.36,12.82S61.6,45.76,63,38.28l4-21.09H60.17Z"/><path class="cls-1" d="M163.15,39.19c0,7.35,4.23,12.3,14,12.3A31.18,31.18,0,0,0,185.61,50l1.2-6.32a23.35,23.35,0,0,1-8,1.61c-5.6,0-8.2-3.13-8.2-7.55,0-6,3.77-15.17,13-15.17a24,24,0,0,1,7,1.15l1.21-6.16a29.67,29.67,0,0,0-7.61-.91C170.05,16.67,163.15,28.06,163.15,39.19Z"/><path class="cls-1" d="M126.79,25c0-4.55-3.18-7.94-10.93-7.94-3.9,0-8.26.07-10.67.2L98.81,51.13h6.83L108.31,37h.59l6.7,14.12h8l-5.8-11.26c-.71-1.43-1.23-2.47-1.88-3.58C120.74,35.71,126.79,32.26,126.79,25Zm-14.7,7.49c-1.3,0-2.28-.07-2.87-.13l1.89-9.76a21.22,21.22,0,0,1,3.12-.13c3.65,0,5.21,1.49,5.21,3.71C119.44,29.79,116.45,32.52,112.09,32.52Z"/><path class="cls-1" d="M85.21,17.09c-3.91,0-8.27.07-10.67.2L68.16,51.13H75L77.66,37h.59L85,51.13h8L87.16,39.87c-.71-1.43-1.24-2.47-1.89-3.58,4.82-.58,10.87-4,10.87-11.26C96.14,20.48,93,17.09,85.21,17.09ZM81.44,32.52a28.72,28.72,0,0,1-2.87-.13l1.89-9.76a21.15,21.15,0,0,1,3.12-.13c3.65,0,5.21,1.49,5.21,3.71C88.79,29.79,85.79,32.52,81.44,32.52Z"/><path class="cls-1" d="M145.06,17.19,126.12,51h7l3.64-6.57h14.45L152.35,51h7.35l-5.92-33.84Zm-5.6,22.2,6-10.81a44.53,44.53,0,0,0,2.54-5.2h.06c.13,1.75.39,3.45.65,5.14l1.82,10.87Z"/><polygon class="cls-1" points="1.11 6.94 0 13.27 16.96 13.26 9.77 51 9.73 51.2 17.03 51.2 24.26 13.26 41.27 13.26 42.43 6.94 1.11 6.94"/><path class="cls-1" d="M352,18.19c-6.08,0-10,6.43-10,13.28,0,4.05,1.92,6.39,5.54,6.39,5.83,0,10.17-6.17,10.17-13.49C357.71,20.66,355.92,18.19,352,18.19Z"/><path class="cls-1" d="M297.64,0l-9,51H424.71l9-51Zm61.18,6.19a2.71,2.71,0,0,1,2.68,2.72,2.83,2.83,0,0,1-2.85,2.9A2.63,2.63,0,0,1,356,9.17,2.91,2.91,0,0,1,358.82,6.19Zm-8.94,0a2.72,2.72,0,0,1,2.73,2.72,2.88,2.88,0,0,1-2.9,2.9A2.63,2.63,0,0,1,347,9.17,2.91,2.91,0,0,1,349.88,6.19ZM328.46,42.41H323l2.39-12.47H313.48L311.1,42.41h-5.45l5.45-28.73h5.44l-2.21,11.49h12l2.17-11.49h5.45Zm18.31.47c-7.28,0-10.64-4-10.64-10.47,0-10.39,7.28-19.2,16.81-19.2,6.94,0,10.6,3.84,10.6,10.52C363.54,34.79,356,42.88,346.77,42.88Zm41.8-.47h-5.45l2.39-12.47H373.59l-2.38,12.47h-5.45l5.45-28.73h5.44l-2.21,11.49h12l2.17-11.49H394Zm26.2-24.09H404.9l-1.37,7.07h9.41l-.85,4.51h-9.41l-1.44,7.74h9.83l-.9,4.77H394.89l5.45-28.73h15.28Z"/></g></g></svg>